HIERARCHY
ROOT Hips
{
	OFFSET 0.000000 0.000000 0.000000
	CHANNELS 6 Xposition Yposition Zposition Zrotation Yrotation Xrotation 
	JOINT LowerBack
	{
		OFFSET 0.000000 0.000000 0.000000
		CHANNELS 3 Zrotation Yrotation Xrotation
		JOINT Spine
		{
			OFFSET 0.028270 2.035590 -0.193380
			CHANNELS 3 Zrotation Yrotation Xrotation
			JOINT Spine1
			{
				OFFSET 0.056720 2.048850 -0.042750
				CHANNELS 3 Zrotation Yrotation Xrotation
				JOINT Neck
				{
					OFFSET 0.000000 0.000000 0.000000
					CHANNELS 3 Zrotation Yrotation Xrotation
					JOINT Neck1
					{
						OFFSET -0.054170 1.746240 0.172020
						CHANNELS 3 Zrotation Yrotation Xrotation
						JOINT Head
						{
							OFFSET 0.104070 1.761360 -0.123970
							CHANNELS 3 Zrotation Yrotation Xrotation
							End Site
							{
								OFFSET 0.000000 0.000000 0.000000
							}
						}
					}
				}
				JOINT LeftShoulder
				{
					OFFSET 0.000000 0.000000 0.000000
					CHANNELS 3 Zrotation Yrotation Xrotation
					JOINT LeftArm
					{
						OFFSET 3.362410 1.200890 -0.311210
						CHANNELS 3 Zrotation Yrotation Xrotation
						JOINT LeftForeArm
						{
							OFFSET 4.983000 -0.000000 -0.000000
							CHANNELS 3 Zrotation Yrotation Xrotation
							JOINT LeftHand
							{
								OFFSET 3.483560 -0.000000 -0.000000
								CHANNELS 3 Zrotation Yrotation Xrotation
								JOINT LeftFingerBase
								{
									OFFSET 0.000000 0.000000 0.000000
									CHANNELS 3 Zrotation Yrotation Xrotation
									JOINT LeftHandIndex1
									{
										OFFSET 0.715260 -0.000000 -0.000000
										CHANNELS 3 Zrotation Yrotation Xrotation
										End Site
										{
											OFFSET 0.000000 0.000000 0.000000
										}
									}
								}
								JOINT LThumb
								{
									OFFSET 0.000000 0.000000 0.000000
									CHANNELS 3 Zrotation Yrotation Xrotation
									End Site
									{
										OFFSET 0.000000 0.000000 0.000000
									}
								}
							}
						}
					}
				}
				JOINT RightShoulder
				{
					OFFSET 0.000000 0.000000 0.000000
					CHANNELS 3 Zrotation Yrotation Xrotation
					JOINT RightArm
					{
						OFFSET -3.136600 1.374050 -0.404650
						CHANNELS 3 Zrotation Yrotation Xrotation
						JOINT RightForeArm
						{
							OFFSET -5.241900 -0.000000 -0.000000
							CHANNELS 3 Zrotation Yrotation Xrotation
							JOINT RightHand
							{
								OFFSET -3.444170 -0.000000 -0.000000
								CHANNELS 3 Zrotation Yrotation Xrotation
								JOINT RightFingerBase
								{
									OFFSET 0.000000 0.000000 0.000000
									CHANNELS 3 Zrotation Yrotation Xrotation
									JOINT RightHandIndex1
									{
										OFFSET -0.622530 -0.000000 -0.000000
										CHANNELS 3 Zrotation Yrotation Xrotation
										End Site
										{
											OFFSET 0.000000 0.000000 0.000000
										}
									}
								}
								JOINT RThumb
								{
									OFFSET 0.000000 0.000000 0.000000
									CHANNELS 3 Zrotation Yrotation Xrotation
									End Site
									{
										OFFSET 0.000000 0.000000 0.000000
									}
								}
							}
						}
					}
				}
			}
		}
	}
}
}
MOTION
Frames: 16
Frame Time: 0.008333
3.874157 17.369913 0.949179 -174.111639 -41.410488 -175.014989 1.238044 -5.971167 -9.100887 -0.445948 -6.216603 -4.827792 -8.016147 -6.074118 -2.655456 17.480129 -11.428497 -0.183132 -2.007421 -0.270970 2.138778 0.000000 0.000000 0.000000 15.200440 -14.030707 5.355293 -16.556079 -2.329561 -33.473154 -1.042364 -32.728407 -0.074000 9.227295 -4.595504 -0.425952 -0.203098 0.574423 -0.000000 0.000000 0.000000 0.000000 0.000000 0.000000 0.000000 11.410538 -8.440644 -8.287187 102.203635 49.870371 51.122542 -178.199652 66.826223 179.770040 -20.695425 8.622057 -1.774676 0.469438 -0.874306 -0.000000 0.000000 0.000000 0.000000 0.000000 0.000000 0.000000 
3.878830 17.375438 0.970442 -174.064885 -41.151951 -174.913383 0.877834 -6.238797 -8.895938 -0.469348 -6.435194 -4.727286 -7.903662 -6.299115 -2.493084 17.989569 -11.838053 -0.406119 -1.833691 -0.257776 2.079069 0.000000 0.000000 0.000000 16.610110 -14.539008 5.330660 -13.549235 -4.311135 -35.306197 -1.182722 -24.055894 -0.065828 8.567285 -4.726758 -0.406760 -0.217688 0.570501 -0.000000 0.000000 0.000000 0.000000 0.000000 0.000000 0.000000 11.488006 -9.312497 -8.294067 101.519772 49.866849 50.099582 -178.088209 66.338829 179.771284 -20.749764 8.473173 -1.748202 0.461552 -0.860712 -0.000000 0.000000 0.000000 0.000000 0.000000 0.000000 0.000000 
3.881010 17.382044 0.989922 -174.011599 -40.871825 -174.751213 0.506284 -6.477701 -8.707247 -0.496805 -6.633193 -4.647560 -7.801475 -6.508550 -2.393793 18.490901 -12.220167 -0.632855 -1.671859 -0.245046 2.019405 0.000000 0.000000 0.000000 17.972006 -14.994863 5.234026 -10.691937 -5.948342 -38.073002 -1.246269 -16.433122 -0.056812 7.813551 -4.826613 -0.378930 -0.226381 0.562895 -0.000000 0.000000 0.000000 0.000000 0.000000 0.000000 0.000000 11.597339 -10.118248 -8.252004 100.784533 49.822938 49.000808 -177.972694 65.868771 179.771895 -20.830322 8.316638 -1.722507 0.454101 -0.848200 -0.000000 0.000000 0.000000 0.000000 0.000000 0.000000 0.000000 
3.880597 17.389465 1.007465 -173.960761 -40.545622 -174.538362 0.161101 -6.686043 -8.548325 -0.523047 -6.811560 -4.589903 -7.718324 -6.701771 -2.348775 18.943264 -12.555747 -0.847431 -1.530535 -0.233557 1.964487 0.000000 0.000000 0.000000 19.314671 -15.435786 5.081381 -8.103369 -7.018804 -41.828592 -1.193282 -10.302196 -0.050001 7.235734 -4.901369 -0.356256 -0.229382 0.554166 -0.000000 0.000000 0.000000 0.000000 0.000000 0.000000 0.000000 11.721213 -10.823572 -8.172736 100.052310 49.733827 47.898514 -177.857528 65.455784 179.771999 -20.924729 8.163296 -1.698693 0.446947 -0.837124 -0.000000 0.000000 0.000000 0.000000 0.000000 0.000000 0.000000 
3.877885 17.397140 1.023150 -173.925407 -40.154110 -174.290033 -0.114557 -6.865377 -8.427998 -0.537747 -6.973049 -4.548935 -7.647285 -6.878639 -2.327315 19.293467 -12.826173 -1.050069 -1.412993 -0.223525 1.914081 0.000000 0.000000 0.000000 20.609571 -15.757547 4.907603 -5.816641 -7.581064 -46.392457 -1.010863 -5.798151 -0.047528 7.062003 -4.991493 -0.353642 -0.230786 0.548539 -0.000000 0.000000 0.000000 0.000000 0.000000 0.000000 0.000000 11.813071 -11.403356 -8.089288 99.428450 49.596159 46.903164 -177.744011 65.140239 179.771805 -21.017100 8.036565 -1.679766 0.439547 -0.827777 -0.000000 0.000000 0.000000 0.000000 0.000000 0.000000 0.000000 
3.873282 17.404362 1.037234 -173.910116 -39.688311 -174.024207 -0.298159 -7.017828 -8.348908 -0.533277 -7.118837 -4.518378 -7.573424 -7.037873 -2.301412 19.506673 -13.019169 -1.242327 -1.318813 -0.214937 1.867420 0.000000 0.000000 0.000000 21.848259 -15.872825 4.743506 -3.900494 -7.773963 -51.457459 -0.715217 -2.910753 -0.049724 7.340906 -5.150683 -0.378197 -0.234794 0.550676 -0.000000 0.000000 0.000000 0.000000 0.000000 0.000000 0.000000 11.834248 -11.844976 -8.029016 98.983375 49.416432 46.086415 -177.632683 64.944798 179.771517 -21.093111 7.955082 -1.668236 0.431302 -0.820224 -0.000000 0.000000 0.000000 0.000000 0.000000 0.000000 0.000000 
3.867397 17.410418 1.049992 -173.917553 -39.151030 -173.756620 -0.385656 -7.145106 -8.306703 -0.505235 -7.248553 -4.491680 -7.479229 -7.177477 -2.248289 19.570032 -13.136202 -1.429201 -1.246077 -0.207616 1.822696 0.000000 0.000000 0.000000 23.017064 -15.683383 4.604384 -2.395718 -7.842603 -56.746929 -0.333398 -1.513950 -0.055753 7.944229 -5.442054 -0.430826 -0.242098 0.565078 -0.000000 0.000000 0.000000 0.000000 0.000000 0.000000 0.000000 11.763486 -12.152924 -8.011890 98.750820 49.212303 45.487148 -177.525059 64.872033 179.771314 -21.142135 7.928462 -1.665304 0.421931 -0.814345 -0.000000 0.000000 0.000000 0.000000 0.000000 0.000000 0.000000 
3.860763 17.414719 1.061652 -173.946662 -38.556346 -173.498223 -0.384543 -7.248612 -8.292751 -0.452143 -7.361403 -4.462390 -7.349762 -7.295779 -2.149161 19.487604 -13.193258 -1.619322 -1.193140 -0.201305 1.777041 0.000000 0.000000 0.000000 24.088032 -15.085247 4.490016 -1.287226 -8.083005 -62.005082 0.107235 -1.433889 -0.064571 8.660998 -5.911619 -0.508233 -0.250050 0.595317 -0.000000 0.000000 0.000000 0.000000 0.000000 0.000000 0.000000 11.596369 -12.345052 -8.049790 98.731860 49.011566 45.118635 -177.425225 64.911122 179.771328 -21.158944 7.956525 -1.670479 0.411676 -0.809922 -0.000000 0.000000 0.000000 0.000000 0.000000 0.000000 0.000000 
3.853897 17.416863 1.072400 -173.999173 -37.926716 -173.255542 -0.307854 -7.329285 -8.301428 -0.377393 -7.456666 -4.431681 -7.182694 -7.392787 -2.013707 19.266987 -13.201718 -1.799196 -1.162540 -0.196409 1.733915 0.000000 0.000000 0.000000 25.033255 -14.154885 4.383728 -0.635720 -8.509729 -66.349833 0.535876 -2.732923 -0.075879 9.363915 -6.316349 -0.587017 -0.260150 0.638244 -0.000000 0.000000 0.000000 0.000000 0.000000 0.000000 0.000000 11.335839 -12.432828 -8.131892 98.890246 48.824433 44.950234 -177.339811 65.043065 179.771538 -21.141114 8.030877 -1.682055 0.401077 -0.807045 -0.000000 0.000000 0.000000 0.000000 0.000000 0.000000 0.000000 
3.846880 17.416714 1.082216 -174.072912 -37.291523 -173.028465 -0.167583 -7.386785 -8.329424 -0.286857 -7.533779 -4.401995 -6.986421 -7.469077 -1.855239 18.921338 -13.185575 -1.955929 -1.159549 -0.193484 1.696684 0.000000 0.000000 0.000000 25.807671 -12.997713 4.262423 -0.430704 -9.070620 -68.889718 0.890066 -5.432143 -0.090325 10.089167 -6.352904 -0.640277 -0.277212 0.687130 -0.000000 0.000000 0.000000 0.000000 0.000000 0.000000 0.000000 10.996186 -12.437259 -8.241548 99.179356 48.662401 44.949351 -177.277853 65.244492 179.771871 -21.092951 8.135610 -1.697323 0.391255 -0.805832 -0.000000 0.000000 0.000000 0.000000 0.000000 0.000000 0.000000 
3.839884 17.414482 1.090946 -174.170286 -36.685026 -172.811822 0.019469 -7.417667 -8.376379 -0.192191 -7.590332 -4.379618 -6.788498 -7.523973 -1.702079 18.475635 -13.163639 -2.066041 -1.191056 -0.193392 1.671870 0.000000 0.000000 0.000000 26.383859 -11.831018 4.102260 -0.596081 -9.525282 -69.401248 1.146752 -9.472903 -0.108909 10.913029 -5.818879 -0.644906 -0.302648 0.733766 -0.000000 0.000000 0.000000 0.000000 0.000000 0.000000 0.000000 10.610155 -12.376759 -8.349006 99.522370 48.523689 45.049713 -177.247647 65.485777 179.772207 -21.022003 8.247704 -1.712472 0.383400 -0.806414 -0.000000 0.000000 0.000000 0.000000 0.000000 0.000000 0.000000 
3.833360 17.410575 1.098693 -174.291316 -36.143212 -172.604637 0.230249 -7.416190 -8.440170 -0.108725 -7.621760 -4.370841 -6.628242 -7.554233 -1.586435 17.969451 -13.143532 -2.106160 -1.260248 -0.196773 1.666071 0.000000 0.000000 0.000000 26.761013 -10.877257 3.886303 -0.967233 -9.643645 -68.556065 1.321979 -14.628913 -0.131309 11.792101 -4.840134 -0.597390 -0.328874 0.774526 -0.000000 0.000000 0.000000 0.000000 0.000000 0.000000 0.000000 10.222481 -12.266202 -8.421729 99.824948 48.396591 45.157327 -177.252101 65.733674 179.772392 -20.938834 8.342909 -1.723790 0.378287 -0.808737 -0.000000 0.000000 0.000000 0.000000 0.000000 0.000000 0.000000 
3.827483 17.405297 1.105802 -174.429135 -35.694468 -172.407724 0.442967 -7.379027 -8.512502 -0.047640 -7.624490 -4.375554 -6.533207 -7.556309 -1.519313 17.447049 -13.131809 -2.075425 -1.361618 -0.203311 1.679483 0.000000 0.000000 0.000000 26.939526 -10.184177 3.610760 -1.320062 -9.478309 -67.338695 1.440656 -20.521881 -0.154564 12.564629 -3.788595 -0.521310 -0.343904 0.811356 -0.000000 0.000000 0.000000 0.000000 0.000000 0.000000 0.000000 9.868191 -12.125290 -8.444490 100.024479 48.276072 45.202576 -177.287439 65.961262 179.772334 -20.854729 8.407312 -1.729475 0.376052 -0.812506 -0.000000 0.000000 0.000000 0.000000 0.000000 0.000000 0.000000 
3.822814 17.398778 1.112670 -174.583711 -35.354216 -172.220250 0.642355 -7.308859 -8.581622 -0.013556 -7.598725 -4.391121 -6.510720 -7.529880 -1.501924 16.940702 -13.124173 -1.983156 -1.483286 -0.212125 1.709408 0.000000 0.000000 0.000000 26.922129 -9.721295 3.285349 -1.513436 -9.169849 -66.297370 1.502946 -26.842733 -0.174885 13.115059 -2.933984 -0.446458 -0.342251 0.845199 -0.000000 0.000000 0.000000 0.000000 0.000000 0.000000 0.000000 9.557085 -11.966834 -8.414660 100.103839 48.154480 45.150177 -177.345012 66.157503 179.771956 -20.777597 8.442190 -1.730531 0.376075 -0.817441 -0.000000 0.000000 0.000000 0.000000 0.000000 0.000000 0.000000 
3.819583 17.391174 1.119592 -174.750633 -35.127565 -172.040078 0.817023 -7.212531 -8.636810 -0.006010 -7.547592 -4.412335 -6.551641 -7.477318 -1.522585 16.474883 -13.119753 -1.850921 -1.610786 -0.221966 1.749679 0.000000 0.000000 0.000000 26.756827 -9.405497 2.923857 -1.548453 -8.884679 -65.624284 1.506367 -33.397020 -0.190076 13.436898 -2.366911 -0.391549 -0.326036 0.874628 -0.000000 0.000000 0.000000 0.000000 0.000000 0.000000 0.000000 9.286231 -11.805434 -8.340206 100.074592 48.032069 44.995556 -177.415066 66.318474 179.771228 -20.714671 8.454504 -1.728666 0.377610 -0.823163 -0.000000 0.000000 0.000000 0.000000 0.000000 0.000000 0.000000 
3.817803 17.382681 1.126767 -174.925522 -35.011142 -171.864328 0.961091 -7.098684 -8.670612 -0.021344 -7.476041 -4.435694 -6.639122 -7.403215 -1.572551 16.061106 -13.112942 -1.696850 -1.732412 -0.231831 1.795141 0.000000 0.000000 0.000000 26.502588 -9.187363 2.542466 -1.506237 -8.692005 -65.307485 1.447171 -40.098535 -0.199808 13.580344 -2.007686 -0.353614 -0.301032 0.896282 -0.000000 0.000000 0.000000 0.000000 0.000000 0.000000 0.000000 9.045081 -11.647201 -8.229988 99.959423 47.907718 44.747174 -177.489114 66.448850 179.770126 -20.670505 8.454613 -1.726286 0.379877 -0.829409 -0.000000 0.000000 0.000000 0.000000 0.000000 0.000000 0.000000 
